<svg xmlns="http://www.w3.org/2000/svg" viewBox="0 0 32 32">
  <defs>
    <linearGradient id="flame" x1="0.5" y1="0" x2="0.5" y2="1">
      <stop offset="0%" stop-color="#FFBE3B"/>
      <stop offset="45%" stop-color="#FF6B2B"/>
      <stop offset="100%" stop-color="#FF3B3B"/>
    </linearGradient>
  </defs>
  <path d="M16 2
    C16 2 21 7 21 13
    C21 15.5 20 17 19 17.5
    C19.5 14 18 11 16.5 9.5
    C16.8 12 16 14.5 14.5 16
    C13.5 13.5 12 11 12 8.5
    C10 11.5 10 15.5 12 18.5
    C10.5 17.5 9.5 15.5 9.5 13.5
    C9.5 19.5 12.5 24.5 16 27
    C19.5 24.5 22.5 19.5 22.5 15
    C22.5 17 21.5 19 20 21
    C19 23 17.5 24.5 16 24.5
    C13 22.5 11.5 18.5 12 14.5
    C12.5 11 14.5 6 16 2Z"
    fill="url(#flame)"/>
</svg>
